<svg viewBox="0 0 762 613" width="762" height="613" xmlns="http://www.w3.org/2000/svg"><g fill="#FFF" fill-rule="nonzero"><path d="M452.27 85.47H335.36a5.91 5.91 0 100 11.82h116.91a5.91 5.91 0 100-11.82zM452.27 148.11H335.36a5.91 5.91 0 100 11.82h116.91a5.91 5.91 0 100-11.82zM452.27 210.74H186.41a5.91 5.91 0 100 11.82h265.86a5.91 5.91 0 100-11.82zM426.31 601H384v-42.16a5.91 5.91 0 10-11.82 0V601h-99.32v-42.16a5.91 5.91 0 10-11.82 0V601H217.2a5.91 5.91 0 100 11.82h209.11a5.91 5.91 0 100-11.82zM452.27 273.38H186.41a5.91 5.91 0 100 11.82h265.86a5.91 5.91 0 100-11.82zM452.27 336H186.41a5.91 5.91 0 100 11.82h265.86a5.91 5.91 0 100-11.82z"/><path d="M120.18 401.4a5.91 5.91 0 005.91-5.91V12.69H516v382.8a5.91 5.91 0 1011.82 0V6.79a5.91 5.91 0 00-5.91-5.91H120.18a5.91 5.91 0 00-5.91 5.91v388.7a5.91 5.91 0 005.91 5.91z"/><path d="M637 364.91a5.91 5.91 0 00-5.91 5.91v71.12H12.28V97.28h72.46a5.91 5.91 0 100-11.82H6.37a5.91 5.91 0 00-5.91 5.91V523.6a5.91 5.91 0 005.91 5.91H637a5.91 5.91 0 005.91-5.91V370.82a5.91 5.91 0 00-5.91-5.91zm-5.91 88.85v63.93H12.28v-63.93h618.81zM558.62 97.28h72.46v33.89a5.91 5.91 0 1011.82 0v-39.8a5.91 5.91 0 00-5.9-5.9h-78.38a5.91 5.91 0 100 11.82v-.01z"/><path d="M288.4 152.95a5.91 5.91 0 005.91-5.91V52.51a5.91 5.91 0 00-5.91-5.91h-94.52a5.91 5.91 0 00-5.88 5.91V147a5.91 5.91 0 005.91 5.91l94.49.04zm-88.62-94.53h82.72v82.71h-82.72V58.42z"/><circle cx="321.68" cy="485.73" r="12.98"/><path d="M759.53 109.78a5.92 5.92 0 00-.5-.33l-51.78-30.56a5.91 5.91 0 00-8.09 2.11L558.78 318.87l-.07.13-.17.31-.1.22-.12.31-.09.26-.08.28c0 .1 0 .2-.07.3-.07.1 0 .17 0 .26v1.07l1.33 56.9v.73c0 .08 0 .22.06.33.06.11 0 .18.06.27l.07.27c0 .11.07.21.11.32l.08.21c0 .12.1.23.16.35l.06.12a5.9 5.9 0 00.39.64l.09.11c.12.153.243.303.37.45l.15.16c.158.163.325.316.5.46l.11.08c.153.12.313.23.48.33l.17.1c.188.11.381.21.58.3.225.094.455.174.69.24h.14l.57.12h.19a6 6 0 00.67 0h.78a5.93 5.93 0 00.63-.11h.16l.49-.15.18-.07.46-.21h.1l50.45-26.35h.08l.22-.13.38-.24.2-.15c.14-.11.28-.23.41-.35l.11-.1a5.86 5.86 0 00.47-.52l.08-.11a5.88 5.88 0 00.34-.5l.06-.08L743.07 148.1l18-30.57a5.91 5.91 0 00-1.54-7.75zM735.9 137l-41.6-24.55 12-20.39 41.6 24.55-12 20.39zM570 332.36l33.46 19.74-32.6 17-.86-36.74zm43.53 12L572 319.79l116.29-197.15 41.6 24.55-116.36 197.17z"/></g></svg>
