<svg xmlns="http://www.w3.org/2000/svg" viewBox="0 0 103 29"><g fill="#000"><path d="M51.59 23.9c-.4.36-.98.59-1.49.59-.64 0-1.2-.36-1.2-1.3 0-2.33 3.15-4.42 5.25-4.4-.46 1.82-.82 3.6-2.56 5.12m39.6.24c-3.02-.87-4.57-2.8-5.18-4.54 1-.83 2.22-1.57 3.42-2.37.7-.47.9-.95 1.17-1.7.34-.88.68-2.15.7-2.78.02-.46-.02-.82-.6-.8-.56.02-2.51 1.3-2.99 1.62a30 30 0 0 0-6.9 6.63 177 177 0 0 0 2.34-11.67c.14-.87.37-2.06-.1-2.87a8 8 0 0 0-2.24-2.3c-.78-.45-1.18.08-1.33.8l-1.25 6.18a46 46 0 0 1-2.52 8.85c-.77 1.91-2.5 5.29-4.44 5.3-1.9 0-1.22-4.63-1.22-5.89 0-.44-.08-1.53-1.12-1.77-3.5-.79-4.03-1.93-4.72-1.8-.43.07-.68.46-.86 1.05-.7 2.33-1.08 4.43-2.44 6.51-.64.97-1.8 2.11-2.7 2.12-.9 0-1.22-.8-1.22-1.62 0-2.28.63-4.6.92-5.9.22-.97-.3-1.14-.8-1.28a7 7 0 0 0-1.73-.22c-2.71.01-5.23.9-7.33 2.63-.88.72-1.58 1.6-2.3 2.48-.8.96-3.15 3.88-4.56 3.89-.98 0-1.09-1.11-1.1-1.87 0-3.37 1.62-8.5 2.81-11.58.8-2.04 1.64-3.88 1.9-4.97a2.8 2.8 0 0 0-.52-2.37 6 6 0 0 0-2.05-1.83c-.47-.22-.92-.09-1.23.36-.52.73-1.2 2.23-1.46 2.81-2.1 4.58-3.67 9.91-3.66 14.97.01 2.7.31 7.67 4 7.66 2.03-.01 3.8-1.25 5.1-2.74.26 1.75 1.64 2.74 3.56 2.74 2.12-.01 4.04-1.23 5.34-2.85a3.54 3.54 0 0 0 3.62 2.85c4.36-.02 6.95-4.85 8.1-8.46.14.09.37.15.37.15-.03.42-.06 1.05-.06 1.55 0 2.84.68 6.77 4.36 6.76 3.13-.01 5.15-2.94 6.6-5.36h.08c-.25 1.64-.59 2.98-.7 4.66-.05.72.97.66 1.43.66 2.24 0 2.14-.54 2.74-2.46.4-1.26 1.34-2.2 2.27-3.08a13 13 0 0 0 3.08 4.05c.95.8 2.3 1.5 3.47 1.5.5 0 .76-.07 1.14-.37a5 5 0 0 0 1.52-2.46c.07-.46-.31-.76-.71-.87"/><path d="M102.81 21.62c.13 2.1-1.44 3.65-3.57 4.8-2.23 1.22-4.8 1.86-6.72 1.7-.4-.04-.67-.33-.58-.94a5 5 0 0 1 .48-1.5c.3-.56.72-.96 1.55-1.05.51-.06 1.57-.08 2.46-.36 1.03-.32 2.12-.81 2.12-1.68 0-1.55-6.74-.67-6.74-3.7 0-3.07 5.03-4.51 6.98-5.06.88-.25 1.9-.38 2.28-.38.47 0 .67.3.58.72-.2.92-.61 2.04-1.62 2.3-.45.11-2.84.59-3.62.97q-.39.2-.38.46c0 .22.25.34.68.46 1.74.45 5.94.67 6.1 3.26m-67.98 6.16q-1-.02-1.99-.17a51 51 0 0 0-6.64-.48c-4.35 0-7.74.42-11.59 1-3 .47-5.53.79-7.87.86-3.3.1-6.74-.56-6.74-4.6 0-4.75 5.22-10.6 10.14-14.56 4.76-3.84 10-6.56 13.38-7.93C25.78.98 28.54.15 30.26.15c1.66 0 1.4 1.47.18 3.58-1.15 1.98-1.66 2.49-3.27 2.69-2.78.35-6.78.7-14.37 6.53-4.32 3.33-8.24 7.93-8.18 10.3.05 1.5 1.16 1.99 2.51 1.99 2 0 4.25-.43 7.1-.96 4.47-.82 10.05-1.98 14.74-1.98q1.9 0 3.52.42c.82.2 1.34.69 1.88 1.4.43.56.82 1.23 1.11 1.83.27.55.5 1.11.33 1.46-.12.23-.38.37-.98.37"/></g></svg>