<svg viewBox="0 0 296 80" width="296" height="80" xmlns="http://www.w3.org/2000/svg"><g fill="#000" fill-rule="nonzero"><path d="M252.66 65.79c-8.33-2.38-12.62-7.66-14.29-12.43a110.69 110.69 0 019.46-6.51c1.94-1.28 2.47-2.6 3.24-4.63a30 30 0 001.93-7.65c0-1.26-.06-2.24-1.67-2.18-1.61.06-6.93 3.53-8.24 4.43a82.79 82.79 0 00-19 18.18c2.45-9.92 5.25-24.56 6.45-32 .38-2.39 1-5.66-.3-7.87a22.23 22.23 0 00-6.14-6.33c-2.16-1.22-3.28.23-3.68 2.19-1.44 7.15-2.26 11.1-3.45 17a124.45 124.45 0 01-7 24.26c-2.12 5.25-6.89 14.51-12.26 14.53-5.37.02-3.36-12.69-3.37-16.13 0-1.22-.2-4.2-3.09-4.85-9.66-2.17-11.11-5.31-13-5-1.19.21-1.89 1.3-2.37 2.91-1.92 6.39-3 12.15-6.74 17.85-1.75 2.65-5 5.79-7.46 5.8-2.46.01-3.34-2.21-3.34-4.44 0-6.24 1.74-12.59 2.53-16.16.59-2.66-.84-3.13-2.21-3.53a18.37 18.37 0 00-4.77-.58 31.5 31.5 0 00-20.23 7.18 48.9 48.9 0 00-6.36 6.82c-2.2 2.64-8.69 10.64-12.58 10.65-2.7 0-3-3-3-5.13 0-9.23 4.44-23.3 7.74-31.72 2.19-5.6 4.51-10.66 5.22-13.65a7.63 7.63 0 00-1.42-6.49 15.66 15.66 0 00-5.66-5 2.56 2.56 0 00-3.39 1 60.54 60.54 0 00-4 7.71c-5.78 12.54-10.13 27.17-10.08 41 0 7.43.85 21 11 21 5.61 0 10.51-3.43 14.08-7.51.7 4.81 4.52 7.53 9.82 7.51 5.84 0 11.16-3.37 14.73-7.79a9.76 9.76 0 0010 7.79c12 0 19.17-13.28 22.37-23.19.316.179.651.32 1 .42-.09 1.14-.17 2.88-.17 4.25 0 7.79 1.87 18.55 12 18.52 8.66 0 14.22-8.06 18.21-14.69h.24c-.7 4.51-1.62 8.16-1.93 12.78-.13 2 2.68 1.8 3.94 1.8 6.18 0 5.92-1.47 7.58-6.74 1.08-3.46 3.68-6 6.26-8.44a34.71 34.71 0 008.49 11.09c2.63 2.21 6.34 4.12 9.57 4.11a4.33 4.33 0 003.16-1 13.94 13.94 0 004.18-6.74c.2-1.25-.86-2.07-1.95-2.39m-109.34-.65a6.59 6.59 0 01-4.1 1.6c-1.78 0-3.3-1-3.31-3.56 0-6.39 8.68-12.13 14.48-12.08-1.28 5-2.28 9.9-7.07 14"/><path d="M284.73 58.86c.36 5.78-4 10-9.85 13.18-6.15 3.32-13.24 5.08-18.54 4.62-1.13-.1-1.87-.88-1.62-2.55a13.29 13.29 0 011.33-4.09 5 5 0 014.27-2.9 34.59 34.59 0 006.79-1c2.85-.89 5.85-2.23 5.85-4.62 0-4.23-18.59-1.83-18.59-10.13S268.24 39 273.64 37.48a29.22 29.22 0 016.28-1 1.49 1.49 0 011.61 2c-.54 2.52-1.69 5.6-4.49 6.3-1.23.31-7.81 1.62-10 2.67-.67.33-1.05.8-1.05 1.27s.72.93 1.9 1.24c4.79 1.23 16.38 1.85 16.83 8.94M97.13 75.77a42.07 42.07 0 01-5.5-.47 141.68 141.68 0 00-18.32-1.32 200.61 200.61 0 00-32 2.75 185.22 185.22 0 01-21.72 2.34C10.5 79.35.98 77.52.98 66.43c0-13 14.41-29 28-39.9A155.5 155.5 0 0165.91 4.8C72.14 2.28 79.76 0 84.51 0c4.57 0 3.86 4 .5 9.81-3.17 5.44-4.59 6.82-9 7.38-7.69 1-18.71 1.9-39.66 17.91-11.92 9.11-22.76 21.74-22.57 28.24.12 4.12 3.18 5.44 6.93 5.44 5.49 0 11.72-1.17 19.58-2.61 12.35-2.25 27.73-5.44 40.67-5.44a39.21 39.21 0 019.72 1.14 9.19 9.19 0 015.19 3.82 32 32 0 013.08 5.06c.74 1.51 1.37 3 .89 4-.31.63-1 1-2.69 1M285.17 69.15a5.1 5.1 0 012.81-2.74 5.33 5.33 0 014.05 0 5.2 5.2 0 012.8 2.74 5 5 0 01.42 2.05 5.2 5.2 0 01-.42 2.09 5.27 5.27 0 01-1.13 1.65 5.07 5.07 0 01-1.66 1.1c-1.3.52-2.75.52-4.05 0a5.15 5.15 0 01-2.81-2.75 5.2 5.2 0 01-.42-2.09 5 5 0 01.42-2.05m.85 3.83a4.5 4.5 0 00.91 1.41 4.08 4.08 0 001.37.94 4.27 4.27 0 004.76-.94 4.31 4.31 0 00.9-1.41 4.74 4.74 0 00.33-1.78 4.49 4.49 0 00-.33-1.74 4.2 4.2 0 00-.9-1.41 4.27 4.27 0 00-1.36-.93 4.33 4.33 0 00-4.77.93 4.39 4.39 0 00-.91 1.41 4.68 4.68 0 00-.32 1.74 4.94 4.94 0 00.32 1.78m4.3-4.83a2.5 2.5 0 011.61.44c.37.33.562.816.52 1.31.04.45-.13.893-.46 1.2a2 2 0 01-1.14.45l1.74 2.7h-1l-1.66-2.63h-1v2.63h-.95v-6.1h2.34zm-.42 2.71h.61a1.91 1.91 0 00.51-.12.92.92 0 00.35-.3 1.15 1.15 0 000-1.06.89.89 0 00-.31-.27 1.21 1.21 0 00-.43-.14h-1.74v1.94l1.01-.05z"/></g></svg>
