<svg viewBox="0 0 1000 660" width="1000" height="660" xmlns="http://www.w3.org/2000/svg"><path d="M417.5 448.5c8.7-29.9 12.2-50 9-65 17.1-10.3 49.8-9.2 49.8 19 0 24.1-20 62.5-20 88.8 0 5.7 1.1 11.7 6.9 11.7 22.1 0 60.2-77.8 55.2-119.6 33.3-15.4 49.3.2 49.3 18.8 0 19.7-26.9 71.6-26.9 94.6 0 8.1 2 10.2 5 10.2 11 0 39.6-38.4 49.7-68.8 14.1-42.4 49-72 82.4-72 22.2 0 35.1 7.6 40.7 19.4 12.6-9.2 28.3-2 38.2 6.4-8.9 16.7-15.3 49.8-22.8 88.1 22.7-14.7 48.7-49.2 67-89.4 9.7-21.5 27.4-44.9 60.3-44.9 29.9 0 37.5 17.7 37.5 26.9 0 7.6-4.7 15.6-11.5 19.6-2.9-9.5-10.4-15.3-19.5-15.3-8.7 0-15.6 4.8-15.6 12.6 0 10.8 6 23.5 12.3 39 24.1-8 51.9-12.7 81.6-12.7 37 0 53.9 15.2 53.9 32.4 0 17-15.1 32.2-33.7 37.5-7.3-14.1-27.4-22.1-62.9-25.1-9.6-.8-19.2-.7-28.4.1 1.9 8.7 3.1 18 3.1 28.1 0 36.2-34.2 54.8-60.8 54.8-26.6 0-39.7-11.8-39.7-33.2 0-21 14.3-41.7 38.3-58.3-3.8-8.4-8.2-16.4-11.4-25.6-25.2 48.9-54.5 74.3-76.6 84-3.3 15.7-7.4 32.7-13.1 49.5 128.2 5.5 146 31.1 146 51.3 0 15.8-10.3 36-30 47.8C820 631.1 769.6 601.4 702 591c-18 35.8-46.6 64.2-94.9 64.2-26.9 0-46-14.3-46-37 0-34.3 47.1-56.6 109.3-58.7 3.6-13.8 6.6-28.8 9.3-43.9-12.4 16.5-27.6 27.1-43.9 27.1-28.4 0-43.5-19.6-46.1-54.3-20.4 34.1-44.3 51.5-67.7 51.5-19.4 0-28.1-14.2-28.9-33.3-16.9 20-36.8 33.7-56.3 33.7-20.7 0-29-11.1-31.5-24.3-17.9 31-42 52.7-61.1 52.7-24.6 0-35.1-16.4-35.1-44.3 0-24.2 3.9-35.6 20.1-100.3 11.4-45.8 19.8-72.3 16.5-91.2 17.1-10.4 50.1-9.5 50.1 18.8 0 24.1-38.1 134.4-38.1 165.4 0 6.3 2.4 12.4 7.4 12.4 13.2-.1 40.5-39.9 52.4-81zM261 606.7c53.6-19.1 203.4-36.2 321.9-43.3-18.5 8.3-31 20.1-34.9 34.5-129.7 6.9-279.6 22.1-312.3 41.6-7.5-16 5.2-25.6 25.3-32.8zm-63.9-349.8c-32.2 50.4-71.3 80.9-118.5 80.9C35 337.8 0 303.3 0 228.5 0 151.8 64.7 27.6 162.8 27.6 201 27.6 217 51.2 217 79c0 48.7-44.3 92.1-69.2 92.1-10.6 0-21.7-4.5-27.6-17.5 20.5-11.6 47.7-51.1 47.7-74.3 0-6.4-3.2-13.9-14.4-13.9-43 0-89.7 84.7-89.7 148 0 48 13.7 71.4 49 71.4 49.2 0 95.3-63.6 102.4-95.5 4.8-21.4 7-38.3 4.6-49.7 17.1-10.3 49.8-9.2 49.8 19 0 24.1-21.7 70.3-21.7 96.6 0 5.7 1.1 11.7 6.9 11.7 22.1 0 61.9-85.6 56.9-127.4 33.3-15.4 49.3.2 49.3 18.8 0 19.7-28.7 79.4-28.7 102.4 0 8.1 2.2 10.2 4 10.2 13.3 0 54.3-64.6 66.1-107 5.6-20 27.2-39.2 55.6-39.2 29.9 0 41.4 16.1 41.4 25.2 0 7.6-4.3 14.3-11.2 20-2.6-9.5-11.5-14.4-18.9-14.4-8.7 0-15 5.6-15 13.6 0 21.8 25.9 57.8 25.9 94s-35.5 55.7-62 55.7c-26.6 0-39.7-14.2-39.7-27.8 0-10.1 7.1-19.6 16-24.1.2 10 8 16.7 15.8 16.7 9.1 0 16.6-8.8 16.6-21.2 0-21.7-12.4-36.4-19.7-59.1-33.8 68.3-61.8 100.4-92.5 100.4-19.4 0-28.9-14.2-29.7-33.3-16.9 20-36.8 33.7-56.3 33.7-32.5.1-34.5-27.1-31.6-47.2zm301.7-143.1c-60.4 0-87.4-24.5-87.4-50.8 0-22.4 15.3-40 41.1-47 5.7 43.3 44.2 55.9 83.7 55.9 2.8 0 5.5 0 8.2-.1 6.2-26.3 10.8-50.3 6-63.7 19.2-9.6 52.3-14 52.3 16.5 0 8.2-4 24.8-8.3 42.1 22.1-3.7 40.5-8.1 63.3-8.1 54.9 0 68 40.1 53.8 66.8C689.6 90.1 641.4 97 585 105.3c-19.3 80-36.8 142.7-36.8 182.3 0 42 30.3 38 47.4 28.9 0 15-12 38.7-48.7 38.7-30.9 0-50.4-20.6-50.4-64.8 0-36.9 24.6-124.4 38.2-178.5-11.9 1.2-23.9 1.9-35.9 1.9zm480.5 86.3c-7.7 44.9-21.2 107 7.5 132.1-24.7 20.9-71.1 15.1-71.1-34 0-37.8 15.9-87.6 15.9-119.1 0-4.9-1.3-7.7-5.3-7.7-15.2 0-36.1 39.8-41.8 70.2-4.6 24.4-7.3 45-4.8 57.2-19.1 6.6-49.3 8.8-49.3-34 0-25.4 14.3-60.9 14.3-85.7 0-4.9-1.7-7.7-5.7-7.7-15.7 0-37 43.4-42.4 73.1-4.2 23-6.8 44.3-4.6 58.6-27.3 12.2-50.1 7.7-50.1-29.7 0-18 8.3-49 14.7-79.3-10.5 10.6-22.1 18.9-34 25.2-7.9 58.6-51.1 96.8-93.2 93.4-40.9-3.4-52.2-44.2-51.1-74.5.8-23.3 12.6-55.4 32.2-68.1 8.4-25.2 34.1-42.2 59-42.2 18.1 0 51 9.3 54.1 62.9 22.7-15.3 41.8-37.6 39.6-59.3 16.7-11.2 51.3-10.9 51.3 18.1 0 3.3-.5 7.8-1.4 13.2 13.4-19.6 32.4-38.7 51.2-38.7 20.5 0 31.6 14.6 30.7 47.1 13.3-22.2 35.1-47.1 56.6-47.1 25.8-.1 36.8 23.1 27.7 76zM190 524c-7.1 42.8-13 87.5 2.1 99.6-27.8 14.5-67.8 14.5-67.8-39.9 0-14.5 3.7-34.8 9.1-57.9-20.1-7.1-18.5-24.9-14.8-35.2 4.1 2 13.2 3.8 22.4 4.8 8.6-32.3 27.8-98.6 22.9-112.5 15.4-7.3 45.7-10.2 45.7 24.5 0 20-5.5 37.7-13.6 81.7 35.1-12.1 62-39.3 62-77.9 0-32.3-23.9-48.9-55.3-48.9-77.8 0-99.8 63.7-85.8 101.4C92.2 476 62.3 477.3 62.3 437c0-71.8 104.8-111.1 166.3-111.1 61.5 0 88.3 33.4 88.3 71.8.1 72.1-72.3 113.1-126.9 126.3zm499.8-316.7c.9-19.1-5.8-43.6-22.9-43.6-9.8 0-21.5 9-22.1 23.3-.5 14.8 11.8 23.3 27.5 23.3 5.2 0 11.1-1 17.5-3zM649 276.9c13.7 0 27.9-13 36.1-44.1-8.3 1.7-16.3 2.5-23.7 2.5-10 0-21.1-2.7-30.5-8.2-4.1 26.5 4.9 49.8 18.1 49.8zm159.2 232.5c9.1 0 16.4-8.8 16.4-21.2 0-4.8-.4-9.3-1.2-13.4-13.6 7.2-22.1 16.5-22.1 26.2 0 4.6 2.9 8.4 6.9 8.4zM654.5 506c9.5 0 28.9-15.2 37.5-68-6.8.6-13.3-1-17.8-4.6 11.7-5.2 26.1-36.3 11.4-40.3-14.5-4-46 28.3-46 84.1 0 22.4 8.2 28.8 14.9 28.8zm-28.6 120.4c15.6 0 27.1-15.8 36-39.1-3.8-.1-7.6-.2-11.4-.2-24.1 0-40.1 9.6-40.1 23.8 0 12.1 7.6 15.5 15.5 15.5z" fill="#000" fill-rule="nonzero"/></svg>
