<svg xmlns="http://www.w3.org/2000/svg" viewBox="0 0 91 26"><path d="M22.82.48v24.45h2.6V13.9h9.1v-2.38h-9.1V2.85h12.3V.48zm20.57 24.45h2.6V.48h-2.6zM82.75 10.9c-3.37-1-5.95-1.95-5.96-4.3 0-1.26.54-2.3 1.58-3.04a7 7 0 0 1 3.93-1.08c2.69 0 5.57 1.12 5.62 4.26v.17h2.5v-.17C90.37 2.7 87.19.1 82.31.1c-4.9 0-8.05 2.6-8.05 6.63 0 3.92 3.31 5.27 7.64 6.63l.11.04c3.36 1.06 6.26 1.98 6.26 4.77q0 2.2-1.4 3.4-1.55 1.32-4.61 1.33c-4.38 0-6.01-2.5-6.08-4.65v-.17h-2.5v.18c.07 3.4 2.81 7.04 8.65 7.04 5.39 0 8.48-2.6 8.48-7.13 0-4.37-3.88-6.08-8.06-7.28m-21.27 3.85H66v3.48l-.02.11c-.4 2.8-2.27 4.46-5.27 4.67h-.03l-.16.01-.35.02c-3.76-.04-5.92-2.19-5.92-5.9V8.28c0-3.7 2.16-5.86 5.92-5.9l.34.02h.2c2.92.21 4.78 1.8 5.25 4.46l.02.14h2.61l-.02-.19c-.56-4.33-3.6-6.8-8.34-6.8h-.05l-.02.17-.01-.18h-.04c-5.29 0-8.44 3.1-8.44 8.28v8.85c0 5.18 3.15 8.27 8.44 8.27h.13c4.85 0 7.9-2.56 8.37-7.04v-5.9h-7.12zM6.91 11.2V7.73h3v3.47c3.42.05 3.47 3 3.47 3H9.91v3.47h-3V14.2c-3.16-.2-3.48-3-3.48-3zM4.79 24.81q1.53.6 3.52.6h.2q2.02 0 3.58-.62c2.9-1.08 4.72-3.6 4.72-7.6V8.21c0-4.02-1.85-6.56-4.78-7.63A10 10 0 0 0 8.51 0h-.2Q6.28 0 4.72.61C1.82 1.71 0 4.23 0 8.21v8.97c0 4.03 1.85 6.57 4.79 7.63" fill="#000" fill-rule="evenodd"/></svg>