<svg viewBox="0 0 130 16" width="130" height="16" xmlns="http://www.w3.org/2000/svg"><path d="M63.555 16H67.6V6.857l3.79 6.218h.086l3.81-6.263V16h4.109V0H75.03l-3.554 6.195L67.919 0h-4.364v16zM92.281 0l6.345 16h-4.429l-1.086-2.836h-5.75L86.298 16h-4.344l6.345-16h3.983zm-2.024 5.22l-1.68 4.516h3.342L90.258 5.22h-.001zM106.94 0c5.329 0 8.419 3.292 8.419 7.908v.047c0 4.617-3.133 8.045-8.503 8.045h-5.67V0h5.754zm.065 3.932h-1.684v8.136h1.684c2.472 0 4.113-1.463 4.113-4.045v-.046c0-2.56-1.64-4.045-4.113-4.045zM117.912 16H130v-3.772h-8.002V9.692h7.15V6.194h-7.15V3.772h7.896V0h-11.982v16zM0 16h4.188v-5.716h7.145v-3.68H4.188v-2.72h7.9V0H0v16zm21.888 0c4.198 0 6.92-2.222 6.92-7.293V0h-4.156v8.842c0 2.199-1.076 3.23-2.722 3.23-1.645 0-2.721-1.076-2.721-3.343V0h-4.156v8.819c0 4.915 2.637 7.181 6.835 7.181zm9.89 0h12.088v-3.772h-8.002V9.692h7.15V6.195h-7.15V3.772h8.002V0H31.778v16zm15.052 0h11.672v-4h-7.63V0H46.83v16z" fill="#000"/></svg>
