<svg viewBox="0 0 101 16" width="101" height="16" xmlns="http://www.w3.org/2000/svg"><path d="M41.008 11.2L31.035 0H29.88v15.657h2.272v-11.2l9.973 11.2h1.155V0h-2.272m16.635 9.943a3.784 3.784 0 01-3.812 3.81c-1.271 0-1.964-.496-2.426-.839l-1.27 1.867C51.52 15.733 52.444 16 53.83 16c3.196 0 6.045-2.514 6.045-6.057V0h-2.272c.039 0 .039 8.076.039 9.943zm13.169-.99h7.508V6.704h-7.547V2.248h9.01V0H68.501v15.657h11.822V13.41h-9.511M2.272 0H0v15.657h11.205V13.41H2.272M18.367 0h2.272v15.657h-2.272V0zM101 15.657L96.533 8.8c2.041-.571 3.235-2.4 3.235-4.305C99.768 1.981 97.688 0 95.3 0h-6.469v15.657h2.272V8.99h2.888l4.313 6.667H101zm-9.934-8.952V2.248h4.197c1.386 0 2.233 1.219 2.233 2.247 0 .953-.809 2.21-2.233 2.21h-4.197z" fill="#000"/></svg>
