<svg xmlns="http://www.w3.org/2000/svg" viewBox="0 0 111 25"><path d="M107.65 7.03a6.5 6.5 0 0 1-2.3 5.23c-2.75-1.42-5.45-2.7-5.45-5.5 0-2 1.28-4.06 3.69-4.06 2.47 0 4.06 1.5 4.06 4.33m-9.48 12.5c0-2.23 1.08-4.46 2.77-5.34 3.02 1.65 6.36 3.07 6.36 6.1a4.25 4.25 0 0 1-4.23 4.37c-2.43 0-4.9-1.38-4.9-5.14M96.1 8.38c0 2.7 2.1 4.26 4.5 5.6-3.22 1.06-5.22 3.45-5.22 5.89 0 2.63 2.5 5.13 7.45 5.13 4 0 8.16-1.9 8.16-6.38 0-3.25-2.64-4.8-5.35-6.22 2.94-1.11 4.57-2.94 4.57-4.93 0-3.2-3.35-5.1-6.77-5.1-3.66 0-7.34 2.33-7.34 6.01M81.99 0h-.34l-6.03.74v.34c2.34.17 2.61.24 2.61 1.62v20.14c0 1.24-.27 1.31-2.6 1.48v.34h8.96v-.34c-2.33-.17-2.6-.24-2.6-1.48V16c.96-.03 1.86.48 2.33 1.32l4.98 7.33h5.59v-.27c-1.29-.17-1.76-1.05-2.17-1.62l-6.16-8.38 3.29-3.92c.9-1.14 1.45-2.03 3.85-2.36v-.34h-7.55v.34c3.93.2 3.73 1.72 2.68 3l-2.47 3.05c-1.18 1.38-1.66 1.58-4.37 1.58zM71.78 7.43h-.34l-6.03.75v.34c2.34.16 2.61.23 2.61 1.62v12.7c0 1.25-.27 1.32-2.6 1.48v.34h8.96v-.34c-2.33-.16-2.6-.23-2.6-1.48zM67.3 3.41c0 1.39 1.08 2.2 2.47 2.2 1.38 0 2.46-.81 2.46-2.2 0-1.35-1.08-2.2-2.46-2.2-1.39 0-2.47.85-2.47 2.2M61.53 0h-.34l-6.02.74v.34c2.33.17 2.6.24 2.6 1.62v6.01a7 7 0 0 0-4-1.28c-4.19 0-7.98 3.28-7.98 8.78 0 5.07 2.57 8.79 6.9 8.79a6.7 6.7 0 0 0 5.08-2.44h.17l.07 2.44h.34l5.79-.75v-.34c-2.34-.16-2.61-.23-2.61-1.62zm-7.11 23.65c-2.54 0-4.64-2.57-4.64-7.57 0-4.7 1.39-8.3 4.53-8.3 1.43 0 3.46.84 3.46 4.59v9.83a5.2 5.2 0 0 1-3.35 1.45M36.9 7.77c1.7 0 2.85 1.09 2.88 3.89q0 1.43-.27 2.83h-7.18c.27-4.12 2.17-6.72 4.57-6.72m.17-.34c-4.23 0-8.53 3.21-8.53 8.95 0 4.56 2.8 8.62 8.2 8.62 2.37 0 4.64-1 6.26-2.74l-.14-.27a6.7 6.7 0 0 1-4.34 1.59c-3.38 0-6.23-2.64-6.23-8.04v-.71h10.63q.26-1 .27-2.03c.01-3.98-3.1-5.37-6.12-5.37m-16.31 15.4c0 1.25-.27 1.32-2.61 1.49v.34h9.1v-.34c-2.33-.17-2.6-.24-2.6-1.48v-20c0-1.25.27-1.32 2.6-1.48v-.34h-6.22l-6.5 18.03L6.9 1.01H0v.34c2.74.17 3.01.24 3.01 1.49v20c0 1.24-.27 1.3-3.01 1.48v.33h7.82v-.33c-3.9-.17-4.47-.24-4.47-1.49V2.46l9.38 22.36h.24L20.89 2.5z" fill="#000"/></svg>