<svg xmlns="http://www.w3.org/2000/svg" viewBox="0 0 85 45"><path d="M46 0v45H0V0zM4.12 10.93l3.24 23.68c.16 1.28 1.37 1.82 2.63 1.38 1.2-.43 11.09-4.28 12.65-4.88 2.12-.81 3.3-.95 3.68.03.63 1.57 2.47 1.65 4.7.4 2-1.1 10.37-5.9 10.37-5.9s-3.87-6.03-4.26-6.68a4 4 0 0 0-3.01-1.95c-1.18-.22-10.24-1.82-10.24-1.82-.52-1.17-2.03-2.41-4.2-2.93L6.28 8.98c-1.31-.33-2.36.6-2.16 1.95m34.72 12.75.87 1.5-7.52 3.3c-1.89.84-3.56.73-4.17-.65-.27-.62-1.5-.6-3.84.08l-11.97 3.45-.82-4.05s9.58-1.73 11.77-2.14c2.23-.4 3.66-.16 4.23 1.2l.25.54zM8.12 11.66l5.05.9.47 1.6c.03-.79.74-1.36 1.68-1.17s2.38.5 2.99.6c2.66.51 3.92 1 4.91 3.25l3.13 7.2c-.69-.44-1.57-.6-3.84-.3l-.55.08-2.06-5.51c-.47-1.28-1.04-2.04-2.58-2.23l-3.27-.37 2.58 8.81-5.7.73zm29.1 9.47.85 1.36-8.1 1.46-1.1-2.22zm-2.77-2.88c.76.09 1.23.47 1.5.87.09.11.33.55.33.55l-8.56-.25-.99-2c.03-.03 7.08.75 7.72.83m31.25 3.54h6.58v-2.05H66a.3.3 0 0 1-.3-.3v-2.56h6v-2.05h-6v-2.46c0-.16.13-.3.3-.3h6.28v-2.04H65.7a2.37 2.37 0 0 0-2.32 2.34v7.07a2.37 2.37 0 0 0 2.32 2.35m9.28 3.77V35h2.32v-9.44c0-.16.14-.3.3-.3h4.72c.17 0 .3.14.3.3v2.46h-3.76c-.17 0-.33.1-.39.24l-.79 1.78h4.97v4.9H85v-9.43c0-1.3-1.04-2.32-2.32-2.35h-5.35a2.44 2.44 0 0 0-2.35 2.4m-1.45-6.12c0 1.3 1.04 2.32 2.32 2.35h6.8a2.37 2.37 0 0 0 2.32-2.35V10h-2.35v9.44a.3.3 0 0 1-.3.3h-1.9V10h-2.36v9.74h-1.9a.3.3 0 0 1-.3-.3V10h-2.33zm-10.15 6.12V35h2.32v-9.44c0-.16.13-.3.3-.3h4.88c.17 0 .3.14.3.3v2.16a.3.3 0 0 1-.3.3H67.2c-.17 0-.33.1-.38.24l-.8 1.78h2.95l2.43 4.9h2.7l-2.62-4.93a2.4 2.4 0 0 0 2.03-2.32v-2.18c0-1.3-1.04-2.32-2.33-2.35h-5.51a2.45 2.45 0 0 0-2.3 2.4m-10.37 0v7.07c0 1.3 1.04 2.32 2.32 2.34h6.83v-2.05h-6.5a.3.3 0 0 1-.3-.3v-2.56h6.22v-2.04h-6.22v-2.46c0-.16.13-.3.3-.3h6.5v-2.05h-6.83A2.37 2.37 0 0 0 53 25.56m0-14.67v10.92h2.32v-7.23l4.48 6.85a1 1 0 0 0 .76.38h.69c.49 0 .87-.4.87-.89V10H59.8v7.23l-4.48-6.85a1 1 0 0 0-.76-.38h-.69c-.49 0-.87.4-.87.89" fill="#000"/></svg>