<svg xmlns="http://www.w3.org/2000/svg" viewBox="0 0 40 45"><g fill="#000"><path d="M.96 22a1 1 0 0 1-.7-.25Q0 21.5 0 21.08V.92Q0 .6.21.35A1 1 0 0 1 .74.03L.96.02q.23 0 .41.1a.8.8 0 0 1 .45.4l.44.9q.83 1.7 1.67 3.33l.82 1.65.4.78.37.74.52 1 .3.62.31.61q.2.44.43.84l.28.56.84 1.7.42.8 1.12 2.23.38-.08V.92a1 1 0 0 1 .26-.67q.26-.24.66-.25.42 0 .7.25.27.27.26.67v20.16q0 .32-.21.57a1 1 0 0 1-.53.32h-.05L11 22q-.19 0-.38-.08a1 1 0 0 1-.45-.43Q8.75 18.7 7.41 16l-.18-.36-.45-.9-.84-1.64-.28-.56q-.53-1.01-1.04-2.06l-.01-.08-.68-1.37-.55-1.1L3 7.16q-.37-.79-.72-1.45l-.38.08v15.28q0 .41-.27.65-.25.3-.67.29M33.74 11.3q.28-.3.75-.3.44 0 .75.3t.32.77v3.36h3.39q.44 0 .75.3.3.3.3.75a1 1 0 0 1-.32.78q-.32.3-.75.29h-3.39v3.4q.01.45-.31.77-.3.27-.74.28a1 1 0 0 1-.75-.3q-.3-.3-.3-.77v-3.36h-3.39a1 1 0 0 1-.76-.3q-.3-.3-.29-.77 0-.44.3-.77a1 1 0 0 1 .75-.3h3.4v-3.36q-.01-.46.29-.77m.31 10.1q-.18-.17-.18-.47v-3.8h-3.82q-.32 0-.44-.15v-.01q-.18-.16-.18-.47 0-.28.18-.47a.6.6 0 0 1 .44-.17h3.82v-3.79q0-.31.17-.46v-.01h.01q.14-.16.44-.16.27 0 .46.17.18.18.18.46v3.8h3.82q.27 0 .46.17.16.15.16.44t-.17.46a.6.6 0 0 1-.46.18H35.1v3.83c0 .2-.04.32-.17.45a.7.7 0 0 1-.45.16q-.32 0-.44-.15M18 22a1 1 0 0 1-.7-.27.8.8 0 0 1-.3-.65V.9q0-.4.3-.66A1 1 0 0 1 18 0q.44 0 .72.25.29.27.28.67V21.1q0 .43-.28.66-.29.25-.72.25"/><path d="M24.89 22q-.41 0-.64-.26-.25-.24-.25-.67V.91q0-.43.25-.65A1 1 0 0 1 24.9 0H29a5 5 0 0 1 4.61 3.14q.4.94.39 1.98v1.95a5.2 5.2 0 0 1-1.47 3.62 5 5 0 0 1-3.52 1.49h-3.2v8.86q0 .43-.25.66a.8.8 0 0 1-.67.3m.9-11.65H29q1.31 0 2.25-.94.93-.95.93-2.32V5.12A3.23 3.23 0 0 0 29 1.86h-3.2zM.94 45a1 1 0 0 1-.67-.25.8.8 0 0 1-.27-.63V24.88q0-.4.27-.63.27-.25.67-.25h7.12q.41 0 .67.24a.8.8 0 0 1 .27.63q0 .4-.27.63a1 1 0 0 1-.67.25H1.9v7.5h5.46q.42 0 .66.24.28.25.27.65 0 .4-.27.64a1 1 0 0 1-.66.26H1.87v9.06a.8.8 0 0 1-.27.63q-.24.29-.66.27m20.08-.02a1 1 0 0 1-.4-.11 1 1 0 0 1-.45-.55l-.2-.74-.11-.4-.24-.8-.14-.5-.47-1.77h-7.04l-.05.15c-.2.71-.36 1.22-.45 1.64a23 23 0 0 1-.47 1.73l-.09.31-.1.4a1 1 0 0 1-.42.55 1 1 0 0 1-.43.11q-.15 0-.29-.05a1 1 0 0 1-.55-.42.7.7 0 0 1-.07-.67l5.57-20.16a1 1 0 0 1 .32-.5q.25-.2.56-.2t.56.2.32.48l5.57 20.16q.13.38-.07.67a1 1 0 0 1-.58.42 1 1 0 0 1-.28.05M15.32 28a82 82 0 0 0-.99 3.67l-.27 1.01-.2.73-.55 1.96-.35 1.28-.2.74-.25.88h6.03l-.07-.24q-.23-.78-.44-1.6l-.3-1.06-.54-1.96-.2-.73-.24-.85a118 118 0 0 1-.91-3.33l-.13-.48-.18-.7zm9.58 16.98a1 1 0 0 1-.66-.25 1 1 0 0 1-.24-.63V24.87q0-.4.26-.63a1 1 0 0 1 .64-.24H29a5.2 5.2 0 0 1 3.54 1.45A5 5 0 0 1 34 28.92v1.21q0 1.21-.53 2.2a5 5 0 0 1-1.4 1.68l-.2.16.2.16A5 5 0 0 1 34 38.2v1.88a4.85 4.85 0 0 1-3.06 4.53Q30 44.99 29 45zm.9-1.76H29q1.32 0 2.26-.92.94-.9.95-2.23v-1.88q0-.66-.26-1.23A3.2 3.2 0 0 0 29 35.02h-3.2zm0-9.95H29q1.31 0 2.26-.91.94-.94.95-2.24V28.9q0-.66-.26-1.23-.27-.6-.7-.99a3 3 0 0 0-2.27-.93h-3.2z"/></g></svg>