<svg viewBox="0 0 540 91" width="540" height="91" xmlns="http://www.w3.org/2000/svg" xmlns:xlink="http://www.w3.org/1999/xlink"><defs><path id="a" d="M.25.449h62.021V72.94H.25z"/></defs><g fill="none" fill-rule="evenodd"><path d="M328.652 68.492c1.7 1.314 4.172 2.086 7.184 2.086 9.811 0 16.608-13.904 16.608-23.406 0-4.403-1.699-9.347-7.184-9.347-5.252 0-12.128 6.721-14.213 17.921l-2.395 12.746zM321.7 88.688l7.416-39.863c.927-4.867 1.622-9.136 2.085-13.136h3.167l-1.158 8h.154c3.322-5 7.957-8.533 12.901-8.533 7.029 0 9.655 5.815 9.655 11.918 0 12.513-8.574 26.905-20.393 26.905-3.63 0-6.025-1.29-7.416-1.29h-.154l-2.935 15.999H321.7zM386.048 38.366c-.85-.309-2.163-.541-4.481-.541-10.66 0-19.003 11.896-19.08 23.561-.077 4.866 1.313 9.192 6.334 9.192 6.026 0 12.824-9.038 14.6-18.617l2.627-13.595zm-4.944 35.322c-.078-3 .386-6 .927-9.999h-.155c-4.249 8-8.96 10.281-13.827 10.281-5.639 0-9.038-4.863-9.038-11.507 0-12.668 9.038-27.459 23.406-27.459 2.626 0 5.562.328 7.493 1.024l-3.94 20.376c-1.313 6.952-1.776 13.285-1.622 17.284h-3.244zM392.305 73.688l4.712-25.411c.927-4.712 1.468-8.588 1.777-12.588h3.013c-.232 3-.541 5-1.005 9h.155c2.24-5 5.948-9.342 10.583-9.342.463 0 1.004-.151 1.39-.151l-.695 3.439a5.002 5.002 0 00-1.236-.134c-4.867 0-10.274 7.783-11.819 15.894l-3.553 19.293h-3.322M428.147 27.564l-1.622 8.125h8.729l-.618 3h-8.729l-4.094 22.008c-.464 2.472-.773 4.362-.773 6.369 0 2.163 1.005 3.456 3.322 3.456 1.236 0 2.008-.088 2.704-.32l.231 2.699a12.856 12.856 0 01-3.63.538c-4.404 0-6.103-2.937-6.103-6.026 0-2.009.232-3.857.85-6.715l4.171-22.009h-5.33l.541-3h5.407l1.236-6.651 3.708-1.474M434.79 73.688l4.944-26.647c.85-4.403 1.313-8.352 1.622-11.352h3.167l-1.081 8h.154c3.245-5 7.88-8.571 12.978-8.571 3.63 0 8.266 2.203 8.266 9.232 0 1.855-.309 4.125-.696 6.134l-4.248 23.204h-3.322l4.326-23.261c.309-1.699.541-3.714.541-5.644 0-3.863-1.545-6.762-6.103-6.762-4.944 0-11.973 6.594-13.596 15.555l-3.63 20.112h-3.322M493.246 43.078c0-3.399-2.384-5.253-5.861-5.253-5.716 0-10.781 6.18-13.098 14.214 9.655.077 18.959-1.545 18.959-8.884v-.077zm-1.602 27.577c-1.931 1.314-5.484 2.782-10.119 2.782-8.652 0-11.665-6.798-11.665-13.906 0-10.66 7.493-24.641 18.076-24.641 6.103 0 8.652 3.939 8.652 8.111 0 9.424-10.814 12.05-22.943 11.973-.386 1.7-.463 6.566.309 9.27 1.314 4.171 4.172 6.257 8.112 6.257 4.094 0 6.875-1.468 8.574-2.472l1.004 2.626zM498.829 73.688l4.712-25.411c.927-4.712 1.468-8.588 1.777-12.588h3.012c-.232 3-.541 5-1.004 9h.155c2.24-5 5.948-9.342 10.582-9.342.464 0 1.005-.151 1.391-.151l-.695 3.439a5.008 5.008 0 00-1.236-.134c-4.867 0-10.274 7.783-11.819 15.894l-3.553 19.293h-3.322M518.295 68.415c1.313 1.004 3.785 2.086 6.489 2.086 4.867 0 8.188-3.477 8.188-7.725 0-3.708-1.545-5.948-5.021-8.188-3.708-2.395-5.716-5.717-5.716-9.192 0-5.794 4.712-10.506 11.278-10.506 2.549 0 5.021.772 6.103 1.622l-1.237 2.858c-1.158-.695-3.09-1.545-5.252-1.545-4.481 0-7.493 3.167-7.493 6.952 0 3.477 2.008 5.408 5.021 7.494 3.553 2.394 5.716 5.793 5.716 9.578 0 7.493-5.484 11.588-11.896 11.588-3.322 0-6.257-1.237-7.493-2.241l1.313-2.781" fill="#0B0B09"/><path d="M28.897 30.149c-.071 0-.145-.006-.22-.016-.847-.119-1.556-.885-1.583-1.712-.027-.809-.52-19.864 10.654-24.198 2.82-1.094 5.382-.848 7.613.731 2.683 1.899 4.639 5.648 5.814 11.142.831 3.885.965 7.232.971 7.372.031.828-.631 1.406-1.478 1.291-.848-.114-1.561-.878-1.592-1.705-.134-3.452-1.329-13.008-5.203-15.749-1.241-.877-2.743-.955-4.591-.238-9.578 3.715-9.124 21.605-9.118 21.785.024.753-.527 1.297-1.267 1.297" fill="#8DB84A"/><path d="M52.757 11.401L9.54 24.783s-1.855.527-2.29 1.049c-.478.573-.57 2.118-.57 2.118L0 79.478l50.15 9.396 3.862-77.516c-.553-.109-1.118.011-1.255.043" fill="#8DB84A"/><path d="M67.724 18.062s-.073-.396-.298-.541c-.224-.145-.469-.173-.469-.173l-7.079-.527-5.209-5.176a1.555 1.555 0 00-.657-.285L50.15 88.876l27.173-5.881-9.599-64.933" fill="#5B873E"/><path d="M34.906 54.467c-.768-1.034-1.663-1.944-2.608-2.749a26.172 26.172 0 00-2.87-2.1 18.815 18.815 0 01-1.778-1.241 8.463 8.463 0 01-1.235-1.188 4.228 4.228 0 01-.711-1.191 3.098 3.098 0 01-.2-1.247 4.044 4.044 0 01.375-1.574 3.65 3.65 0 01.937-1.213c.4-.342.886-.616 1.446-.816a6.936 6.936 0 011.915-.369 13.716 13.716 0 012.224.051c.717.074 1.396.199 2.027.354a15.952 15.952 0 013.153 1.136l3.345-9.968a9.858 9.858 0 00-1.797-.684c-.69-.195-1.47-.354-2.325-.463a20.827 20.827 0 00-2.736-.161 24.2 24.2 0 00-3.037.208c-2.283.299-4.344.931-6.146 1.831a15.713 15.713 0 00-4.521 3.359 14.857 14.857 0 00-2.891 4.567c-.683 1.692-1.091 3.573-1.179 5.612-.054 1.219.069 2.34.334 3.374a10.98 10.98 0 001.201 2.881 13.571 13.571 0 001.899 2.477 19.34 19.34 0 002.432 2.13 18.48 18.48 0 011.814 1.487c.505.479.906.942 1.214 1.404.309.465.523.927.654 1.405.132.478.18.971.157 1.494a3.857 3.857 0 01-.334 1.445c-.199.433-.484.81-.851 1.107a3.228 3.228 0 01-1.335.632c-.519.117-1.112.137-1.776.039a10.677 10.677 0 01-2.248-.611 16.32 16.32 0 01-2.097-.992 20.8 20.8 0 01-3.207-2.216l-2.29 7.6a9.37 9.37 0 001.431 1.44 14.84 14.84 0 001.972 1.36c.743.433 1.559.834 2.429 1.185a19.978 19.978 0 002.992.944c2.075.458 4.088.57 5.965.319 1.934-.259 3.711-.902 5.245-1.938 1.569-1.06 2.871-2.523 3.816-4.384.956-1.886 1.533-4.158 1.648-6.795a12.211 12.211 0 00-.592-4.403 12.565 12.565 0 00-1.861-3.538" fill="#FFFFFE"/><path d="M18.362 27.52a1.51 1.51 0 01-1.499-1.727c.116-.809 2.983-19.864 14.921-24.199 3.013-1.094 5.531-.847 7.484.732 2.348 1.898 3.642 5.647 3.849 11.142.146 3.885-.31 7.231-.329 7.372a1.513 1.513 0 01-2.997-.415c.475-3.451.965-13.007-2.426-15.748-1.086-.877-2.575-.955-4.549-.239-10.233 3.715-12.933 21.605-12.959 21.785a1.513 1.513 0 01-1.495 1.297" fill="#8DB84A"/><path d="M109 51.047c-2.71-1.471-4.104-2.71-4.104-4.414 0-2.168 1.936-3.561 4.955-3.561 2.788 0 5.188.774 6.659 1.471l2.478-7.588c-1.703-1.007-4.878-1.781-8.982-1.781-9.369 0-15.795 5.342-15.795 12.853 0 4.258 3.02 7.511 7.046 9.833 3.252 1.858 4.413 3.175 4.413 5.111 0 2.013-1.626 3.639-4.645 3.639-3.33.077-6.814-1.317-8.75-2.323l-2.632 7.588c2.013 1.393 6.117 2.555 10.53 2.632 9.601.078 16.492-4.723 16.492-13.239 0-4.569-3.484-7.821-7.665-10.221M147.249 35.097c-4.723 0-8.439 2.245-11.304 5.652l-.155-.078 4.104-21.447h-10.685l-10.376 54.587h10.686l3.561-18.66c1.394-7.047 5.033-11.382 8.44-11.382 2.4 0 3.33 1.625 3.33 3.949 0 1.47-.156 3.251-.465 4.723l-4.026 21.37h10.685l4.181-22.067c.464-2.323.774-5.111.774-6.969 0-6.039-3.175-9.678-8.75-9.678M174.892 66.378c-3.639 0-5.188-3.098-5.188-6.969 0-6.117 3.175-16.105 8.982-16.105 3.794 0 5.033 3.252 5.033 6.426 0 6.582-3.175 16.648-8.827 16.648zm5.265-31.281c-12.853 0-21.37 11.614-21.37 24.544 0 8.285 5.11 14.944 14.711 14.944 12.621 0 21.138-11.305 21.138-24.545 0-7.665-4.491-14.943-14.479-14.943zM211.749 66.532c-1.936 0-3.252-.619-4.414-1.548l1.781-9.988c1.239-6.659 4.723-11.073 8.44-11.073 3.252 0 4.258 3.02 4.258 5.885 0 6.891-4.104 16.724-10.065 16.724zm10.22-31.435c-4.259 0-8.439 2.322-11.305 6.349h-.154l.619-5.73h-9.446c-.465 3.871-1.316 9.756-2.168 14.169l-7.433 39.102h10.685l2.942-15.796h.232c1.239.774 3.64 1.394 6.272 1.394 12.544 0 20.751-12.853 20.751-25.861 0-7.201-3.175-13.627-10.995-13.627zM248.218 19.766c-3.406 0-6.116 2.71-6.116 6.194 0 3.175 2.012 5.343 5.032 5.343h.155c3.329 0 6.195-2.246 6.272-6.195 0-3.097-2.091-5.342-5.343-5.342M233.274 73.811h10.686l7.278-37.863h-10.762l-7.202 37.863" fill="#1A1919"/><g transform="translate(253 18)"><mask id="b" fill="#fff"><use xlink:href="#a"/></mask><path d="M25.415 17.871h-7.433l.387-1.781c.619-3.639 2.787-6.891 6.349-6.891 1.393 0 2.478.232 3.406.542l2.091-8.362c-1.239-.542-3.174-.93-5.807-.93-3.794 0-7.588 1.085-10.453 3.562-3.639 3.097-5.342 7.588-6.194 12.079l-.31 1.781H2.496L.947 25.923h4.956L.25 55.811h10.686l5.652-29.888h7.356l1.471-8.052M51.121 17.948l-6.504 16.957c-1.549 4.104-2.323 6.504-3.175 9.059h-.154c-.155-2.477-.465-5.188-.929-8.981l-1.704-17.035H27.428l6.427 34.766c.154.774.077 1.238-.233 1.78-1.239 2.401-3.329 4.724-5.807 6.427-2.013 1.471-4.258 2.4-6.039 3.02L24.718 73c2.168-.465 6.659-2.246 10.453-5.807 4.878-4.569 9.369-11.615 14.014-21.216l13.086-28.029h-11.15" fill="#1A1919" mask="url(#b)"/></g></g></svg>