<svg viewBox="0 0 878 66" width="878" height="66" xmlns="http://www.w3.org/2000/svg"><g fill="#161615" fill-rule="nonzero"><path d="M53.018 1L30.98 49.376 9.045 1H0l29.33 64h3.34L62 1zM72 2h8v63h-8zM156 2v7.665h21.8V65h8.4V9.665H208V2zM265.818 33.123a23.775 23.775 0 01-11.84 20.889 23.957 23.957 0 01-24.077 0 23.775 23.775 0 01-11.84-20.89 23.775 23.775 0 0111.84-20.888 23.957 23.957 0 0124.077 0 23.775 23.775 0 0111.84 20.889M241.942.847c-17.803.313-32.01 14.89-31.802 32.63.209 17.738 14.755 31.98 32.56 31.878 17.806-.103 32.186-14.512 32.189-32.252a31.764 31.764 0 00-9.55-23.147A32.005 32.005 0 00241.941.847M319.378 19.438c0 5.353-3.322 11.057-12.642 11.057h-12.519V9.145h12.334c8.152 0 12.827 3.752 12.827 10.293m8.675 0c0-12.44-9.77-18.007-19.412-18.007h-22.82v63.37h8.391V38.203h11.63l18.782 26.6h9.989l-19.505-27.622c7.776-2.416 13.037-9.63 12.94-17.744M345 2h8v63h-8zM485.694 46.797a11.3 11.3 0 01-3.976 8.092 11.451 11.451 0 01-8.662 2.652H460.42V36.418h12.437c8.16 0 12.838 3.783 12.838 10.38m-14.358-18.074h-10.917V9.699h11.684c5.417 0 11.2 2.428 11.2 9.228s-6.013 9.797-11.967 9.797m13.322 3.327c4.735-2.663 7.597-7.71 7.436-13.114 0-8.413-6.708-16.927-19.522-16.927h-20.567v63.235h19.805c5.294 0 22.567-1.331 22.567-18.457.313-6.488-3.609-12.441-9.72-14.751M505 2v63h37v-7.665h-28.604V36.29h26.509v-7.665h-26.509V9.665H542V2zM658.972 2.02L630.415 29.96V2.02H622V65h8.415V40.812l4.988-4.925 27.671 29.094H674l-32.85-34.686L670 2zM728.58 2v26.615h-36.174V2H684v63h8.406V36.29h36.173V65H737V2zM393.044 16.71l11.632 25.643h-23.313l11.681-25.643zM391.382 1L362 64.99h9.05l6.93-15.213h30.065l6.684 14.736.22.487H424L394.706 1h-3.324zM776.044 16.71l11.632 25.643h-23.313l11.681-25.643zM774.377 1L745 64.99h9.05l6.93-15.213h30.065l6.684 14.736.22.487H807L777.716 1.01l-3.34-.01zM866.976 2l-20.469 48.637L826.04 2H815v63h7.971V14.747l21.107 49.76.21.483h4.418l21.323-50.253V64.99H878V2z"/><g><path d="M123.783 8.95a22.918 22.918 0 0120.421 10.468l6.12-5.377A31.888 31.888 0 00123.782.867C112.065.618 101.129 6.71 95.197 16.792a32.187 32.187 0 000 32.657c5.932 10.081 16.868 16.174 28.586 15.925a31.918 31.918 0 0026.35-12.882l-5.987-5.5a23.11 23.11 0 01-20.353 10.29c-13.248-.188-23.889-10.953-23.889-24.166 0-13.214 10.641-23.978 23.889-24.166M584.25 8.95a22.918 22.918 0 0120.42 10.468l6.12-5.377A31.888 31.888 0 00584.244.867C572.526.618 561.59 6.71 555.658 16.792a32.187 32.187 0 000 32.657c5.932 10.081 16.868 16.174 28.586 15.925a31.918 31.918 0 0026.35-12.882l-5.987-5.5a23.11 23.11 0 01-20.353 10.29c-13.248-.188-23.888-10.953-23.888-24.166 0-13.214 10.64-23.978 23.888-24.166"/></g></g></svg>
