<svg xmlns="http://www.w3.org/2000/svg" viewBox="0 0 248 19"><path d="m14.91.4-6.2 13.69L2.54.4H-.01l8.25 18.1h.94L17.43.4zm7.71 0h-2.37v17.94h2.37zm21.49 0v2.19h6.16v15.75h2.37V2.59h6.16V.4zm30.88 8.97a6.74 6.74 0 1 1-13.47 0 6.74 6.74 0 1 1 13.47 0M68.25.24a9.13 9.13 0 1 0 9.3 9.13 9 9 0 0 0-9.3-9.13M90.1 5.5c0 1.51-.94 3.13-3.57 3.13H83V2.58h3.48c2.3 0 3.62 1.07 3.62 2.92m2.44 0c0-3.52-2.75-5.1-5.47-5.1h-6.44v17.94H83v-7.53h3.28l5.3 7.53h2.81l-5.5-7.82a5.2 5.2 0 0 0 3.65-5.02M99.79.4h-2.37v17.94h2.37zm37.3 12.71a3.2 3.2 0 0 1-3.56 3.05h-3.56v-6h3.5c2.3 0 3.62 1.08 3.62 2.95m-4.05-5.13h-3.07v-5.4h3.29c1.53 0 3.16.7 3.16 2.63 0 1.92-1.7 2.77-3.38 2.77m3.76.95a4.1 4.1 0 0 0 2.1-3.72c0-2.39-1.9-4.8-5.5-4.8h-5.8v17.93h5.58c1.49 0 6.36-.37 6.36-5.23a4.3 4.3 0 0 0-2.74-4.19M142.68.4v17.94h10.44v-2.18h-8.07v-5.99h7.48V7.98h-7.48V2.59h8.07V.4zm43.33 0-8.04 7.96V.4h-2.36v17.94h2.36v-6.89l1.41-1.4 7.79 8.29h3.07L181 8.46 189.12.4zm19.64 0v7.58h-10.19V.4h-2.36v17.94h2.36v-8.17h10.19v8.17h2.37V.4zm-94.7 4.29 3.28 7.25h-6.57zm-.47-4.45-8.28 18.1h2.56l1.95-4.3h8.47l1.88 4.17.07.13h2.55L111.42.24zm108.84 4.45 3.28 7.25h-6.57zm-.47-4.45-8.28 18.1h2.55l1.95-4.3h8.48l1.88 4.17.06.13h2.55L219.8.24zm26.06.16-5.75 13.85L233.41.4h-3.09v17.94h2.23V4.03l5.93 14.17.06.14h1.24l5.98-14.31v14.31H248V.4zM34.84 2.53a6.5 6.5 0 0 1 5.77 2.96l1.73-1.52a9 9 0 0 0-7.5-3.73 9.13 9.13 0 1 0 0 18.26 9 9 0 0 0 7.44-3.64L40.6 13.3a6.5 6.5 0 0 1-5.74 2.91 6.84 6.84 0 0 1 0-13.68m130.01 0a6.5 6.5 0 0 1 5.76 2.96l1.73-1.52a9 9 0 0 0-7.5-3.73 9.14 9.14 0 1 0 0 18.26 9 9 0 0 0 7.45-3.64l-1.7-1.56a6.5 6.5 0 0 1-5.74 2.91 6.84 6.84 0 0 1 0-13.68" fill="#000"/></svg>